<?xml version="1.0" encoding="utf-8"?>
<!-- Generator: Adobe Illustrator 24.0.0, SVG Export Plug-In . SVG Version: 6.00 Build 0)  -->
<svg version="1.1" id="Layer_1" xmlns="http://www.w3.org/2000/svg" xmlns:xlink="http://www.w3.org/1999/xlink" x="0px" y="0px"
	 viewBox="0 0 960 560" style="enable-background:new 0 0 960 560;" xml:space="preserve">
<style type="text/css">
	.st0{fill:#999999;stroke:#000000;stroke-width:0.3818;stroke-miterlimit:10;}
	.st1{fill:#D3DBDB;stroke:#000000;stroke-width:0.4387;stroke-miterlimit:10;}
	.st2{fill:#00D9E9;stroke:#000000;stroke-width:0.4387;stroke-miterlimit:10;}
	.st3{fill:#130101;stroke:#000000;stroke-width:0.3018;stroke-miterlimit:10;}
	.st4{fill:#333333;stroke:#000000;stroke-width:0.3018;stroke-miterlimit:10;}
	.st5{fill:#F1DFC5;stroke:#000000;stroke-width:0.2612;stroke-miterlimit:10;}
	.st6{fill:#1300E9;stroke:#000000;stroke-width:0.3018;stroke-miterlimit:10;}
	.st7{fill:#F1DFC5;stroke:#000000;stroke-width:0.2794;stroke-miterlimit:10;}
	.st8{fill:#D2C500;stroke:#000000;stroke-width:0.2435;stroke-miterlimit:10;}
	.st9{fill:#D4000B;stroke:#000000;stroke-width:0.2228;stroke-miterlimit:10;}
	.st10{fill:#D42F34;stroke:#000000;stroke-width:0.2228;stroke-miterlimit:10;}
	.st11{fill:none;stroke:#B3B3B3;stroke-width:1.653;stroke-miterlimit:10;}
	.st12{fill:#FFFFFF;stroke:#000000;stroke-width:0.3747;stroke-miterlimit:10;}
	.st13{fill:#F1DFC5;stroke:#000000;stroke-width:0.3212;stroke-miterlimit:10;}
	.st14{fill:#F1DFC5;stroke:#000000;stroke-width:0.2273;stroke-miterlimit:10;}
	.st15{fill:#FFFFFF;stroke:#000000;stroke-width:0.4367;stroke-miterlimit:10;}
	.st16{fill:#FFFFFF;stroke:#000000;stroke-width:0.4228;stroke-miterlimit:10;}
	.st17{fill:#FFFFFF;stroke:#000000;stroke-width:0.3597;stroke-miterlimit:10;}
	.st18{fill:#2300D4;stroke:#000000;stroke-width:0.383;stroke-miterlimit:10;}
	.st19{fill:#FFFFFF;stroke:#000000;stroke-width:0.383;stroke-miterlimit:10;}
</style>
<g>
	<polygon class="st0" points="527.1,385 465.9,461.8 584.1,552.6 367.6,552.1 469.3,380.8 472.6,372.2 533.2,375.1 	"/>
	<path class="st1" d="M139.2,269.6c0,0,110.8,69.9,216,92.7c105.3,22.8,156.2,19.3,238.7,19.3c82.5,0,72.4-19.3,196.9,9.6L687,330.8
		H495.7l-147.4-15.9c0,0-107.1-54.4-110.6-54.4s-86-26.3-86-26.3L139.2,269.6z"/>
	<path class="st2" d="M148.1,216.5c40.3,0,94.4,13.6,141.8,35c39.3,17.9,72.7,43.8,102.2,50.9c65,15.9,203.6,12.2,265,5.3
		c69.6-7.9,163.2,78.2,163.2,89.4c0,12.2-108.8-45.6-163.2-45.6c-54.4,0-224.6,22.8-298.4-10.6s-177.2-79-210.6-71.9
		C114.9,276.2,104.3,216.5,148.1,216.5z"/>
	<g id="hasta">
		<path class="st3" d="M682.2,249.4c0,0,3.6-1.3,3.6,3.3c0,4.6,2.3,26.9,3.8,33.1c1.5,6.1,3.1,19.2,1.5,20.7
			c-1.5,1.5-2.6,1.2-5.6,1.3C682.5,307.9,682.2,249.4,682.2,249.4z"/>
		<path class="st4" d="M647.4,292.1c23,0,20-33.1,24.6-37.7c4.6-4.6,12.2-9.3,12.2,2.3c0,11.6,10.7,50.9,0,51.2
			c-10.7,0.3-36.9,0-36.9,0L647.4,292.1L647.4,292.1z"/>
		<path class="st5" d="M653.6,307.8c10.1,0.3,18.8-24.3,15.5-45.5c0,0-1.7,18.2-6.6,23.5c-5.1,5.3-15,6.1-15,6.1L653.6,307.8z"/>
		<path class="st6" d="M424.8,265.6c0,0,70.7-46.6,88.3-52.7c17.7-6.1,51.1,96.4,47.1,100.5l-12.6,0.8c0,0-13.1-22.6-22.3-43
			c-7.9-17.4-12.4-34.2-18.5-25.8c-16.7,23.5-82,52.7-82,52.7V265.6z"/>
		<path class="st6" d="M423.3,309.4c0,0,87.9,14.1,134.9,2.6c5-1.2,12.7,0.3,15.7,1c0.8,0.2,1.8,0.3,2.6,0.3c8.4-0.3,51.4-0.5,63-3
			c13.1-2.8,12.4-1.2,17.7-2l-1.5-21.5c0,0-61.3,7.8-78.4,5.3c-17-2.5-19.2,0-21.2,0c-2.1,0.2-94.1-16.7-121.5-12.7
			C407.3,283.5,423.3,309.4,423.3,309.4z"/>
		<polygon class="st7" points="277.2,229.6 290.1,251.4 306.3,232.7 287.1,218.5 		"/>
		<path class="st5" d="M263.6,178.8c0,0,10.9,6.1,14.7,10.9c1,1.2,4.1,1.5,4.1,1.5s5-2.1,2.3,2.8c0,0,2.6,5.5,4.6,5.6
			c0,0-4.1,5.5,0.5,11.1c4.6,5.6,11.9,1.7,11.9,1.7s3.5,3,3.1,5c-0.2,2.1,1.8,6.4-5,13.7c-12.2,13.1-13.6,4.5-26.3,6.4
			c-12.7,2-40.3,4.6-39.8-22.6S263.6,178.8,263.6,178.8z"/>
		<path class="st8" d="M279.7,256.5c0,0-37-13.9-57.9-22.2s-18.5-61.2,28.1-68.1c17-2.5,33.4,15.7,15.2,18.7l2.5-4.3
			c0,0-43.3,28.1,11.7,48.1c18.3,6.6,32.4,2.1,32.4,2.1L279.7,256.5z"/>
		<g>
			<path d="M267.6,199.5c-0.3-1-0.3-2.1,0-3.1c0.2-1,0.7-2.1,1.3-3c0.7-0.8,1.7-1.7,2.6-2c0.5-0.3,1-0.3,1.5-0.5s1-0.2,1.7-0.2l0,0
				c-1,0.3-2,0.5-2.8,1.2c-0.8,0.5-1.7,1.2-2.3,2C268.3,195.4,267.8,197.4,267.6,199.5L267.6,199.5z"/>
		</g>
		<path class="st9" d="M306.4,233.1c0,0,13.9-6.1,20-6.1c6.1,0,20.7-4.5,25.3-4.5c4.6,0,12.2,11.4,12.2,11.4s13.9,24.3,67.6,19.3
			c0,0,6.9,46.8-4.6,62.3c0,0-70.3-22.6-109.1-44.8c-21.5-12.2-27.6-19.3-27.6-19.3"/>
		<path class="st10" d="M325.1,243.3c-2.6-1.8-6-1.5-8.6,0.3c-2.3,1.5-8.4,7.3-7.6,11.6c1.5,8.8,37.7,12.1,48.4,13.9
			c10.7,1.8,39.2-9.9,39.2-20.7l-8.4-2.8c0,0-13.1,4.1-26.9,6C350.2,252.7,332.4,248.1,325.1,243.3z"/>
	</g>
	<g>
		<path class="st5" d="M326.4,200.7c0,0-11.4-12.6-18.5-9.9c-12.9,5-13.4,12.1-14.5,13.2c-3.3,3.3-1,8.3,8.3,5s24.8,0,24.8,0V200.7z
			"/>
		<line class="st11" x1="333.9" y1="181.7" x2="294.2" y2="211.4"/>
		<path class="st5" d="M314.9,200.7c0,0-8.3-6.4-11.6,6.6c-1.7,6.6,6,1.2,5.5,0.5"/>
		<path class="st12" d="M433.9,142.8c0,0-57.9,34.9-62.8,38c-5,0-38,11.1-46.3,11.1s0,25.3,0,25.3s44.6-7.9,51.2-7.9
			c5-3.1,71.1-28.4,71.1-28.4L433.9,142.8z"/>
		<path class="st13" d="M357.5,258.5c-1-1.5-3.3-2.8-5.6-4.3c-3.6-2.3-12.9-6.8-12.9-6.8s-5.5-2.3-3.6,2.3c1.2,2.6,5.6,6.3,9.3,8.6
			c-3.3-0.8-6.4-1.8-9.3-1.8c-7.3,0-16.5,0-20.2,6.8c-1.5,2.6,2.1,6.9,5.5,8.9c3.6,2.3,11.1,4.5,18.3,4.5c5.1,0,20.2-2.3,20.2-2.3
			l1.8-18C360,257.4,358.7,258,357.5,258.5z"/>
		<path class="st4" d="M407.3,503.2c-1.3,18.8-19.8,23.1-33.9,25.3c-14.1,2-11.9,18.3,0.3,20.8s46.9,9.6,57.4-0.7
			c10.4-10.2,0.2-32.9,1.3-45.3C423.6,502.8,415.9,503.3,407.3,503.2z"/>
		<path class="st4" d="M493.2,503.2c-0.7,17.5-16.4,23.1-29.4,25.1c-13.1,2.1-10.2,18.3,0.2,20.8c10.4,2.5,41.3,9.6,50.3-0.7
			c8.9-10.2,0.2-32.9,1.2-45.1C507.6,503,500.8,503.3,493.2,503.2z"/>
		<path class="st14" d="M356.2,85c-36.9-29.3,4.1-74.9,39.5-70.9c37.7,4.1,47.4,50.3,50.9,80.8c4,4,7.3,8.1,9.8,12.9
			c-10.9,1.8-19.7,12.2-27.6,18.8c-1-8.1-6.3-17.9-16.9-13.2c-10.7,4.8-17.9,11.1-29.9,2c-5.1-3.8-8.6-8.8-11.9-13.7
			c-1.2-1.8-2.1-1.7-4.3-1c-2.1,0.7-5,0-6.1-2C357.7,95.2,358.8,86.9,356.2,85z"/>
		<path d="M364.5,60.8c-5,4.8-18.5,23.6-27.8,3.6c-6.8-14.4,13.4-53.1,45-55.2c31.6-2.1,64.6,26,62.6,66.1c-6.8-2.6-16-5-23.3-7.4
			c-4.1-4.5-2.6-9.4-11.2-10.6c-8.6-1.2-13.6,8.6-9.6,18.2c0.7,1.5,1.8,3,2.5,4.5c-2.5,1.8-4.8,4.1-7.4,5.6
			c-3.1-8.3-12.2-27.6-19.7-29.9C367.9,53.4,369.2,55.9,364.5,60.8z"/>
		<path class="st15" d="M421.3,307.5c-9.8,32.2-22,58.2-23.5,93.9s0.2,78-0.7,114.9c13.9,0.3,27.4,0,41.3,0
			c-0.2-37.7,0-75.4,0.2-112.9c15.2-28.6,30.2-57.2,45.5-85.8C463.1,314.2,442.5,311.1,421.3,307.5z"/>
		<path class="st16" d="M452.6,317.5c19,0,37.9,0,56.9,0.2c-3.1,26.8-3.5,53.4,0,80.2c2.6,39.5,5.3,79,8.1,118.5
			c-12.2,0-24.5,0-36.5,0.2c-7.8-37.5-17.7-76-20.2-114.4C458,373.9,455.2,345.6,452.6,317.5z"/>
		<path class="st17" d="M358.7,95.5c15.9-3.3,29.4-9.8,42.5-20c3.6,10.6,23.8,23,9.8,36.7s-27.9,12.2-40.3-9.3
			c-0.3-0.7-1.8-1.7-2.8-2c-1-0.3-1.7-0.8-3.1,0C361.6,102.3,358.8,98.3,358.7,95.5z"/>
		<g>
			<path class="st18" d="M402.6,355.9c16.4-38.7,17.7-74.6,11.7-117.5c-4.5-32.7-6.4-75.5,4-110.4c-11.4,12.6-16.2,13.7-20.2,35.2
				c-5.6,30.6,15,72.1,17.9,104.3"/>
			<path class="st19" d="M483.1,126c-19.7-23.1-12.1-10.4-30.1-24.3c-4.5,3-11.1,4-15,8.3c-4.6,5-7.8,11.1-13.4,15
				c-2,1.2-4.1,1.5-6.1,3.3c-12.6,37.2-19.2,73.6-15.5,111.1c4.3,44.3,5,75-0.3,116.4c35.5,6,73.1,7.3,107.6-2.3
				C514.1,314.4,502.8,149.1,483.1,126z"/>
		</g>
		<g>
			<path class="st19" d="M440.5,154.4c-13.4,26.8-10.1,59.5-33.9,79.7c-15.7,7.9-32.2,17.7-42.2,19.5c-5.1,1-9.9,0-9.9,0
				s1.7,20.8,0,26.4c28.1-4.6,19.3-5.3,52.9-14.9c33.6-9.6,79.5-61.3,74.4-105.8C472.7,133.9,450.4,134.5,440.5,154.4z"/>
		</g>
	</g>
	<g>
		<path d="M359.5,83.3c-0.3-0.3-0.3-0.8-0.5-1.3c0-0.5,0-1,0.2-1.3c0.3-1,1.2-1.7,1.8-2.1c0.8-0.3,1.7-0.7,2.6-0.7
			c0.5,0,0.8,0,1.3,0c0.5,0.2,0.8,0.2,1.3,0.3l0,0c-0.8,0-1.7,0-2.5,0.2c-0.8,0.2-1.7,0.3-2.3,0.7c-0.7,0.3-1.3,0.8-1.7,1.7
			C359.3,81.7,359.3,82.5,359.5,83.3L359.5,83.3z"/>
	</g>
	<circle cx="363.6" cy="84.1" r="1.7"/>
</g>
</svg>
