<?xml version="1.0" encoding="utf-8"?>
<!-- Generator: Adobe Illustrator 24.0.0, SVG Export Plug-In . SVG Version: 6.00 Build 0)  -->
<svg version="1.1" id="Layer_1" xmlns="http://www.w3.org/2000/svg" xmlns:xlink="http://www.w3.org/1999/xlink" x="0px" y="0px"
	 viewBox="0 0 30 30" style="enable-background:new 0 0 30 30;" xml:space="preserve">
<style type="text/css">
	.st0{fill:#121953;}
	.st1{fill:#FFFFFF;}
</style>
<g>
	<circle class="st0" cx="15" cy="15.1" r="15"/>
	<g>
		<path class="st1" d="M9.9,10.5h2.2V9.4c0-1.3,0.1-2.2,0.4-2.9C12.8,5.9,13.3,5.4,14,5c0.7-0.4,1.6-0.6,2.8-0.6
			c1.1,0,2.3,0.2,3.4,0.5l-0.5,2.8c-0.6-0.2-1.3-0.2-1.8-0.2c-0.6,0-1,0.1-1.2,0.4c-0.3,0.3-0.4,0.8-0.4,1.6v1.1h3v3.2h-3v12h-4v-12
			H9.9V10.5z"/>
	</g>
</g>
</svg>
