<?xml version="1.0" encoding="utf-8"?>
<!-- Generator: Adobe Illustrator 24.0.0, SVG Export Plug-In . SVG Version: 6.00 Build 0)  -->
<svg version="1.1" id="Layer_1" xmlns="http://www.w3.org/2000/svg" xmlns:xlink="http://www.w3.org/1999/xlink" x="0px" y="0px"
	 viewBox="0 0 30 30" style="enable-background:new 0 0 30 30;" xml:space="preserve">
<style type="text/css">
	.st0{fill:#121953;}
	.st1{fill:none;stroke:#FFFFFF;stroke-width:1.8758;stroke-miterlimit:10;}
	.st2{fill:#FFFFFF;}
</style>
<g>
	<path class="st0" d="M23.2,29.8H6.8c-3.7,0-6.6-3-6.6-6.6V6.8c0-3.7,3-6.6,6.6-6.6h16.4c3.7,0,6.6,3,6.6,6.6v16.4
		C29.8,26.8,26.9,29.8,23.2,29.8z"/>
	<path class="st1" d="M10.7,24.5c-2.9,0-5.2-2.4-5.2-5.2v-8.5c0-2.9,2.4-5.2,5.2-5.2h8.5c2.9,0,5.2,2.4,5.2,5.2v8.5
		c0,2.9-2.4,5.2-5.2,5.2H10.7z"/>
	<circle class="st1" cx="15" cy="15" r="4.5"/>
	<circle class="st2" cx="21" cy="9.6" r="1.5"/>
</g>
</svg>
