<?xml version="1.0" encoding="utf-8"?>
<!-- Generator: Adobe Illustrator 24.0.0, SVG Export Plug-In . SVG Version: 6.00 Build 0)  -->
<svg version="1.2" baseProfile="tiny" id="Layer_1" xmlns="http://www.w3.org/2000/svg" xmlns:xlink="http://www.w3.org/1999/xlink"
	 x="0px" y="0px" viewBox="0 0 101 147" xml:space="preserve">
<g>
	<path fill="#121953" d="M50.9,1c-27.1,0-49,22-49,49.1c0,2.8,0.2,5.6,0.7,8.3c0.6,3.6,1.6,7.1,3,10.4L12,80l38.7,67l37.9-65.6
		L97,67c1-2.8,1.8-5.7,2.3-8.6c0.5-2.7,0.7-5.5,0.7-8.3C100,23,78,1,50.9,1z M50.7,73.9c-12.4,0-22.4-10-22.4-22.4
		s10-22.4,22.4-22.4s22.4,10,22.4,22.4C73.2,63.9,63.1,73.9,50.7,73.9z"/>
</g>
</svg>
