<?xml version="1.0" encoding="utf-8"?>
<!-- Generator: Adobe Illustrator 24.0.0, SVG Export Plug-In . SVG Version: 6.00 Build 0)  -->
<svg version="1.2" baseProfile="tiny" id="Layer_1" xmlns="http://www.w3.org/2000/svg" xmlns:xlink="http://www.w3.org/1999/xlink"
	 x="0px" y="0px" viewBox="0 0 150 147" xml:space="preserve">
<g>
	<path fill="#121953" d="M36.2,1.5C24.7-1.3,10.9,9.1,4.9,20.6C-5,39.6,6.2,61.6,14,77.1c18.6,36.9,50.3,52.7,58.5,56.5
		c16.8,7.8,41.7,19.3,59.5,7.1c10.3-7.1,19.3-20.4,16.1-31.3c-5.5-18.7-44.6-23.8-55-11.6c-5.1,6-0.8,13.4-5,16.1
		c-11.2,7.3-58.6-34.4-51.4-50.4c2.4-5.4,8.9-3.4,14.1-10.1C61.5,39.7,53.7,5.7,36.2,1.5z"/>
</g>
</svg>
