<?xml version="1.0" encoding="utf-8"?>
<!-- Generator: Adobe Illustrator 24.0.0, SVG Export Plug-In . SVG Version: 6.00 Build 0)  -->
<svg version="1.1" id="Layer_1" xmlns="http://www.w3.org/2000/svg" xmlns:xlink="http://www.w3.org/1999/xlink" x="0px" y="0px"
	 viewBox="0 0 30 30" style="enable-background:new 0 0 30 30;" xml:space="preserve">
<style type="text/css">
	.st0{fill:#121953;}
	.st1{fill:#FFFFFF;}
</style>
<g>
	<path class="st0" d="M15.1,30h-0.5C6.5,30-0.1,23.4-0.1,15.2v-0.5C-0.1,6.6,6.5,0,14.6,0l0.5,0c8.1,0,14.8,6.6,14.8,14.8v0.5
		C29.9,23.4,23.3,30,15.1,30z"/>
	<path class="st1" d="M7.5,8.9c0,0,3.2,4,7.8,4c0,0-0.4-2.8,2.2-4.3s4.6,0.8,4.6,0.8s1.3-0.3,2.3-0.9c0,0,0.2,0.5-1.3,2
		c0,0,0.7-0.1,1.9-0.4c0,0-0.4,1.3-1.8,1.9c0,0,0.3,5.4-3.5,8.6s-8.4,3.8-13.3,1.1c0,0,3.5-0.1,5.5-1.5c0,0-2.6-0.4-3.4-2.8
		c0.6,0.1,1.1,0.1,1.7,0c0,0-3.1-0.9-3-3.8c0,0,1.1,0.5,1.7,0.4C8.7,14,6,12,7.5,8.9z"/>
</g>
</svg>
